<?xml version="1.0" standalone="no"?>
<!DOCTYPE svg PUBLIC "-//W3C//DTD SVG 20010904//EN"
 "http://www.w3.org/TR/2001/REC-SVG-20010904/DTD/svg10.dtd">
<svg version="1.0" xmlns="http://www.w3.org/2000/svg"
 width="166.000000pt" height="166.000000pt" viewBox="0 0 166.000000 166.000000"
 preserveAspectRatio="xMidYMid meet">
<metadata>
Created by potrace 1.14, written by Peter Selinger 2001-2017
</metadata>
<g transform="translate(0.000000,166.000000) scale(0.100000,-0.100000)"
fill="#000000" stroke="none">
<path d="M478 1372 c-16 -9 -28 -20 -28 -24 0 -5 -8 -8 -17 -9 -12 0 -13 -2
-5 -6 10 -4 10 -8 1 -19 -6 -8 -8 -14 -4 -14 4 0 1 -8 -6 -17 -12 -15 -12 -16
1 -8 12 7 13 6 3 -6 -15 -19 -19 -914 -4 -951 14 -33 56 -78 74 -78 9 0 18 -4
21 -8 8 -13 150 -6 177 8 30 16 58 48 70 78 5 13 9 233 9 489 0 445 -1 469
-20 507 -29 59 -65 76 -163 76 -60 0 -90 -5 -109 -18z"/>
<path d="M864 1368 c-24 -11 -44 -48 -44 -81 1 -12 20 -58 43 -101 l42 -79
174 -88 c98 -49 182 -86 193 -84 35 7 47 36 48 115 5 346 22 324 -244 326
-107 1 -200 -3 -212 -8z"/>
<path d="M891 922 c-91 -49 -93 -180 -3 -229 120 -65 244 60 178 179 -14 25
-34 43 -59 53 -49 20 -75 19 -116 -3z"/>
<path d="M1175 642 c-55 -26 -102 -49 -105 -53 -4 -5 -37 -21 -50 -23 -3 -1
-32 -16 -65 -34 -57 -31 -62 -37 -97 -113 -40 -86 -44 -108 -28 -140 22 -39
56 -46 235 -44 94 1 178 3 187 4 26 2 69 50 67 75 0 11 0 24 0 29 2 7 2 87 2
221 -1 64 -4 79 -24 100 l-23 24 -99 -46z"/>
</g>
</svg>
