<svg width="24" height="24" viewBox="0 0 24 24" fill="none" xmlns="http://www.w3.org/2000/svg">
<g id="open_in_new_24dp_5F6368_FILL0_wght300_GRAD0_opsz24 1">
<path id="Vector" d="M5.30775 20.498C4.80258 20.498 4.375 20.323 4.025 19.973C3.675 19.623 3.5 19.1955 3.5 18.6903V5.3058C3.5 4.80063 3.675 4.37305 4.025 4.02305C4.375 3.67305 4.80258 3.49805 5.30775 3.49805H10.8652C11.0781 3.49805 11.2563 3.56988 11.4 3.71355C11.5435 3.85705 11.6152 4.03521 11.6152 4.24805C11.6152 4.46088 11.5435 4.63905 11.4 4.78255C11.2563 4.92621 11.0781 4.99805 10.8652 4.99805H5.30775C5.23075 4.99805 5.16025 5.03013 5.09625 5.0943C5.03208 5.1583 5 5.2288 5 5.3058V18.6903C5 18.7673 5.03208 18.8378 5.09625 18.9018C5.16025 18.966 5.23075 18.998 5.30775 18.998H18.6923C18.7692 18.998 18.8398 18.966 18.9038 18.9018C18.9679 18.8378 19 18.7673 19 18.6903V13.1328C19 12.92 19.0718 12.7417 19.2155 12.598C19.359 12.4545 19.5372 12.3828 19.75 12.3828C19.9628 12.3828 20.141 12.4545 20.2845 12.598C20.4282 12.7417 20.5 12.92 20.5 13.1328V18.6903C20.5 19.1955 20.325 19.623 19.975 19.973C19.625 20.323 19.1974 20.498 18.6923 20.498H5.30775ZM19 6.0518L10.2463 14.8058C10.1078 14.9441 9.93367 15.015 9.724 15.0183C9.5145 15.0215 9.33725 14.9506 9.19225 14.8058C9.04742 14.6608 8.975 14.4851 8.975 14.2788C8.975 14.0725 9.04742 13.8968 9.19225 13.7518L17.9462 4.99805H14.75C14.5372 4.99805 14.359 4.92621 14.2155 4.78255C14.0718 4.63905 14 4.46088 14 4.24805C14 4.03521 14.0718 3.85705 14.2155 3.71355C14.359 3.56988 14.5372 3.49805 14.75 3.49805H19.596C19.8538 3.49805 20.0689 3.5843 20.2413 3.7568C20.4138 3.92913 20.5 4.14421 20.5 4.40205V9.24805C20.5 9.46088 20.4282 9.63905 20.2845 9.78255C20.141 9.92621 19.9628 9.99805 19.75 9.99805C19.5372 9.99805 19.359 9.92621 19.2155 9.78255C19.0718 9.63905 19 9.46088 19 9.24805V6.0518Z" fill="#1A1C1F"/>
</g>
</svg>
