<svg width="48" height="48" viewBox="0 0 48 48" fill="none" xmlns="http://www.w3.org/2000/svg">
<path d="M18.9075 24L27.054 32.146C27.3307 32.423 27.4724 32.7712 27.479 33.1905C27.4854 33.6095 27.3437 33.964 27.054 34.254C26.764 34.5437 26.4127 34.6885 26 34.6885C25.5874 34.6885 25.236 34.5437 24.946 34.254L15.9575 25.2655C15.7705 25.0782 15.6385 24.8807 15.5615 24.673C15.4845 24.4653 15.446 24.241 15.446 24C15.446 23.759 15.4845 23.5347 15.5615 23.327C15.6385 23.1193 15.7705 22.9218 15.9575 22.7345L24.946 13.746C25.223 13.4693 25.5712 13.3277 25.9905 13.321C26.4095 13.3147 26.764 13.4563 27.054 13.746C27.3437 14.036 27.4885 14.3873 27.4885 14.8C27.4885 15.2127 27.3437 15.564 27.054 15.854L18.9075 24Z" fill="#1A1C1F"/>
</svg>
