<svg width="48" height="48" viewBox="0 0 48 48" fill="none" xmlns="http://www.w3.org/2000/svg">
<path d="M27.8925 24L19.746 15.854C19.4694 15.577 19.3277 15.2289 19.321 14.8095C19.3147 14.3905 19.4564 14.036 19.746 13.746C20.036 13.4564 20.3874 13.3115 20.8 13.3115C21.2127 13.3115 21.564 13.4564 21.854 13.746L30.8425 22.7345C31.0295 22.9219 31.1615 23.1194 31.2385 23.327C31.3155 23.5347 31.354 23.759 31.354 24C31.354 24.241 31.3155 24.4654 31.2385 24.673C31.1615 24.8807 31.0295 25.0782 30.8425 25.2655L21.854 34.254C21.577 34.5307 21.2289 34.6724 20.8095 34.679C20.3905 34.6854 20.036 34.5437 19.746 34.254C19.4564 33.964 19.3115 33.6127 19.3115 33.2C19.3115 32.7874 19.4564 32.436 19.746 32.146L27.8925 24Z" fill="#1A1C1F"/>
</svg>
